HIERARCHY
ROOT Hips
{
    OFFSET 0.000000 0.000000 0.000000
    CHANNELS 6 Xposition Yposition Zposition Zrotation Xrotation Yrotation
    JOINT Spine
    {
        OFFSET -0.000000 6.993131 0.000000
        CHANNELS 3 Zrotation Xrotation Yrotation
        JOINT Spine1
        {
            OFFSET -0.000000 20.649729 0.000000
            CHANNELS 3 Zrotation Xrotation Yrotation
            JOINT Neck
            {
                OFFSET -0.000000 20.564924 1.869539
                CHANNELS 3 Zrotation Xrotation Yrotation
                JOINT Head
                {
                    OFFSET -0.000000 11.939490 -1.705642
                    CHANNELS 3 Zrotation Xrotation Yrotation
                    End Site
                    {
                        OFFSET -0.000000 21.320518 0.000000
                    }
                }
            }
            JOINT LeftShoulder
            {
                OFFSET 3.446977 19.850397 -0.038759
                CHANNELS 3 Zrotation Xrotation Yrotation
                JOINT LeftArm
                {
                    OFFSET 7.083611 0.000000 0.000000
                    CHANNELS 3 Zrotation Xrotation Yrotation
                    JOINT LeftForeArm
                    {
                        OFFSET 32.044487 0.000000 0.000000
                        CHANNELS 3 Zrotation Xrotation Yrotation
                        JOINT LeftHand
                        {
                            OFFSET 22.068741 0.000000 0.000000
                            CHANNELS 3 Zrotation Xrotation Yrotation
                            End Site
                            {
                                OFFSET 12.792312 0.000000 0.000000
                            }
                        }
                    }
                }
            }
            JOINT RightShoulder
            {
                OFFSET -3.365844 19.850397 -0.038759
                CHANNELS 3 Zrotation Xrotation Yrotation
                JOINT RightArm
                {
                    OFFSET -7.083611 0.000000 0.000000
                    CHANNELS 3 Zrotation Xrotation Yrotation
                    JOINT RightForeArm
                    {
                        OFFSET -32.044487 0.000000 0.000000
                        CHANNELS 3 Zrotation Xrotation Yrotation
                        JOINT RightHand
                        {
                            OFFSET -22.068741 0.000000 0.000000
                            CHANNELS 3 Zrotation Xrotation Yrotation
                            End Site
                            {
                                OFFSET -12.792312 0.000000 0.000000
                            }
                        }
                    }
                }
            }
        }
    }
    JOINT LeftUpLeg
    {
        OFFSET 8.528208 0.000000 0.000000
        CHANNELS 3 Zrotation Xrotation Yrotation
        JOINT LeftLeg
        {
            OFFSET -0.000000 -31.874865 0.000000
            CHANNELS 3 Zrotation Xrotation Yrotation
            JOINT LeftFoot
            {
                OFFSET -0.000000 -38.221939 0.000000
                CHANNELS 3 Zrotation Xrotation Yrotation
                JOINT LeftToeBase
                {
                    OFFSET -0.000000 -5.543335 12.792312
                    CHANNELS 3 Zrotation Xrotation Yrotation
                    End Site
                    {
                        OFFSET -0.000000 0.000000 3.411283
                    }
                }
            }
        }
    }
    JOINT RightUpLeg
    {
        OFFSET -8.528208 0.000000 0.000000
        CHANNELS 3 Zrotation Xrotation Yrotation
        JOINT RightLeg
        {
            OFFSET -0.000000 -31.874865 0.000000
            CHANNELS 3 Zrotation Xrotation Yrotation
            JOINT RightFoot
            {
                OFFSET -0.000000 -38.221939 0.000000
                CHANNELS 3 Zrotation Xrotation Yrotation
                JOINT RightToeBase
                {
                    OFFSET -0.000000 -5.543335 12.792312
                    CHANNELS 3 Zrotation Xrotation Yrotation
                    End Site
                    {
                        OFFSET -0.000000 0.000000 3.411283
                    }
                }
            }
        }
    }
}
MOTION
Frames:    11
Frame Time:    0.008333
28.737467    76.453979    42.302578    0.643435    5.287945    90.419884    -5.149853    -3.553062    -1.340675    -1.732455    10.777092    -1.017393    6.153763    15.420227    17.171398    -24.049335    -11.599933    12.080979    8.040116    9.539364    -2.281649    -53.899441    45.719170    -7.769778    22.499193    -28.044241    -86.147964    13.750017    -7.101205    4.600762    10.813766    6.139170    -11.449760    43.476593    16.546951    13.142911    -36.013966    -54.160252    79.883156    -39.544487    -23.500999    -23.273907    -7.054928    -8.919540    2.287045    1.963568    21.470129    18.983006    -7.128295    -1.683795    0.875940    0.000000    0.000000    0.000000    -12.584910    -9.288451    -8.004473    9.390784    28.710470    -13.750829    4.866973    -8.935617    -7.370914    0.000000    0.000000    0.000000    
28.594965    76.589020    42.357193    0.181310    5.374051    91.294647    -4.940878    -4.166227    -1.125410    -2.319568    11.466207    -0.712700    6.095737    15.196693    16.821627    -23.382206    -11.911652    11.799888    8.210699    9.342517    -2.017340    -53.328403    45.758717    -9.099305    22.570990    -28.123455    -86.241798    14.063712    -7.091993    4.419482    10.295750    6.067585    -11.837345    43.038643    16.753109    12.263430    -34.069706    -53.241119    81.523323    -37.717571    -24.225975    -20.678616    -6.848834    -10.325855    2.702131    1.998060    22.809395    18.279295    -7.997634    -0.510503    0.303892    0.000000    0.000000    0.000000    -12.724848    -9.640692    -8.427949    9.439898    28.696829    -14.208591    5.363513    -8.339467    -7.338488    0.000000    0.000000    0.000000    
28.434246    76.701012    42.392712    -0.246383    5.476406    92.278824    -4.611821    -4.704575    -0.878140    -3.139237    12.168451    -0.353992    5.866519    14.922098    16.213137    -22.120859    -12.381823    11.367510    8.313794    9.201536    -1.788760    -52.380054    45.499470    -10.634421    22.575150    -27.905882    -86.529610    14.320827    -6.773439    4.007769    9.858825    5.900231    -12.249485    42.530701    16.532572    11.213275    -31.444977    -51.758217    84.013229    -36.651310    -23.822962    -19.284628    -6.663415    -11.797099    3.049624    1.985162    24.248013    18.246202    -8.818535    0.784257    -0.891423    0.000000    0.000000    0.000000    -12.964063    -9.980957    -8.826559    9.635592    28.774693    -14.773834    6.016071    -7.947151    -7.423697    0.000000    0.000000    0.000000    
28.272676    76.767822    42.451157    -0.579083    5.512700    93.281578    -4.411889    -5.057117    -0.582983    -3.592126    12.741217    0.013160    6.080804    14.610875    15.445932    -21.668058    -12.367688    10.654498    8.072821    8.935886    -1.692286    -51.293797    45.328480    -12.171208    22.757421    -27.713705    -86.528297    14.076745    -6.470157    3.297756    9.477230    6.442492    -12.985173    41.733353    15.892018    10.847450    -29.405514    -50.043964    86.063339    -34.293053    -23.448143    -16.701073    -6.372841    -13.321604    3.563285    1.989224    25.964291    17.788363    -9.537694    1.831678    -1.752815    0.000000    0.000000    0.000000    -13.116471    -10.236913    -9.016271    9.920225    28.868540    -15.580694    6.528786    -7.697494    -7.480487    0.000000    0.000000    0.000000    
28.099792    76.806656    42.512287    -0.816553    5.538103    94.293297    -4.129447    -5.250931    -0.235856    -4.193863    13.297811    0.441394    6.034143    14.422873    14.432192    -20.614849    -12.887577    9.750182    7.956914    8.873859    -1.704091    -49.992714    45.003078    -14.017663    22.858173    -27.527096    -86.582123    13.919675    -6.251721    2.398232    8.954803    6.205922    -13.417155    41.075321    15.662631    9.556143    -27.357708    -48.200920    88.117477    -32.545639    -22.613665    -15.087262    -6.033333    -14.816845    3.632945    1.711166    27.725109    18.401276    -10.102606    3.052758    -3.193411    0.000000    0.000000    0.000000    -13.253915    -10.480789    -9.284230    10.135802    29.055033    -16.280928    7.048529    -7.466179    -7.583648    0.000000    0.000000    0.000000    
27.921476    76.798492    42.594921    -0.968266    5.544469    95.306511    -3.517112    -5.164147    -0.007702    -5.361936    13.569983    0.789704    6.151048    14.256564    13.435424    -19.549892    -13.382212    8.880091    8.121317    8.715975    -1.548581    -49.052834    44.659893    -15.451906    22.980366    -27.285080    -86.685661    13.850710    -5.954182    1.265110    8.671866    6.112959    -13.607964    40.179337    16.840857    8.312678    -26.588108    -47.393764    89.153519    -31.783117    -22.016504    -14.675648    -5.591121    -16.443794    3.617687    1.281686    29.826437    19.223242    -10.668777    4.350102    -4.528559    0.000000    0.000000    0.000000    -13.359052    -10.738400    -9.632055    10.305147    29.427593    -16.755339    7.465027    -7.385577    -7.844682    0.000000    0.000000    0.000000    
27.716917    76.735092    42.680283    -1.093415    5.565488    96.154617    -3.011749    -4.980230    0.316488    -6.323587    13.690097    1.207387    6.131488    14.494954    12.332121    -18.531715    -14.322893    7.851970    7.869574    8.556277    -1.601652    -47.806026    44.453461    -16.728344    22.986971    -27.325031    -86.784920    13.791189    -6.101895    0.030917    8.229809    6.044774    -13.475197    39.474796    17.381157    6.793936    -25.722677    -46.139370    90.174561    -29.703501    -21.494022    -12.742285    -5.069815    -18.039349    3.617040    0.626734    31.838306    20.477236    -11.151091    5.671336    -6.120094    0.000000    0.000000    0.000000    -13.500927    -11.098281    -9.803016    10.572067    29.922838    -17.241720    7.728617    -7.486482    -8.104706    0.000000    0.000000    0.000000    
27.529526    76.636444    42.769112    -0.970634    5.605258    97.027046    -2.307184    -4.590388    0.577044    -7.686760    13.925613    1.609818    6.500273    14.584887    11.235420    -17.781839    -15.116775    6.782120    7.908778    8.383039    -1.323218    -46.473637    44.236992    -18.324059    23.002525    -27.254280    -86.837944    14.067250    -6.062248    -0.592998    7.943361    5.919204    -13.129128    38.580952    17.870947    5.199893    -24.457455    -44.528328    91.573273    -27.797569    -20.776346    -10.581335    -4.456107    -19.564543    3.886260    -0.018929    34.191292    21.313143    -11.899005    7.121671    -7.402450    0.000000    0.000000    0.000000    -13.628407    -11.213553    -9.942830    10.867441    30.494770    -17.400902    7.829556    -7.805579    -8.725564    0.000000    0.000000    0.000000    
27.332386    76.501205    42.862968    -0.823442    5.660439    97.753899    -1.662748    -4.047856    0.850327    -9.013702    13.957560    2.014742    6.871689    14.901489    10.175487    -17.004431    -16.209866    5.742261    8.127836    8.294155    -1.367784    -45.728218    43.701786    -19.419210    23.068773    -27.203272    -86.966949    13.937911    -5.969333    -1.282853    7.695875    5.798657    -12.662690    37.665287    19.593603    3.614004    -24.194073    -44.160477    91.887817    -26.223341    -20.881907    -9.212529    -3.783951    -21.003500    3.476575    -1.279733    36.380360    23.020992    -11.921360    8.409520    -8.683783    0.000000    0.000000    0.000000    -13.768335    -11.364737    -9.856188    11.296252    31.084568    -17.771086    7.953586    -8.318793    -9.281040    0.000000    0.000000    0.000000    
27.138042    76.308716    42.970112    -0.505624    5.768120    98.530617    -1.101660    -3.293989    1.161047    -10.304579    13.964375    2.458105    7.455475    15.368836    8.992489    -16.359661    -17.473150    4.537834    8.306828    8.282559    -1.596755    -44.737076    43.073860    -20.638155    23.269585    -27.223595    -87.018753    13.808237    -5.802955    -1.602088    7.467539    5.772643    -12.252581    36.920109    21.164125    1.883510    -23.940231    -43.570976    92.277809    -23.694933    -20.815683    -7.196471    -3.078055    -22.429132    2.995079    -2.696304    38.745079    24.440077    -12.370304    9.647901    -9.621104    0.000000    0.000000    0.000000    -13.958158    -11.400327    -10.369394    11.438251    31.928688    -17.690821    7.853871    -8.931205    -9.649536    0.000000    0.000000    0.000000    
26.953554    76.094368    43.057938    -0.131667    5.931038    99.189568    -0.562618    -2.575310    1.486797    -11.592817    14.183039    2.946543    8.095246    15.864027    7.786867    -15.861345    -19.056889    3.244513    8.590498    8.165179    -1.903535    -44.081024    42.469788    -21.667080    23.852547    -27.492018    -86.822662    13.667125    -5.659230    -2.223112    7.188129    5.395269    -11.777868    36.230915    22.989597    0.016295    -23.210091    -42.949627    93.088974    -22.328049    -20.860966    -5.446174    -2.366068    -23.799496    2.733630    -4.122160    41.239365    25.613087    -13.145918    10.575033    -10.363903    0.000000    0.000000    0.000000    -14.201283    -11.337357    -10.633258    11.721398    32.647770    -17.930332    7.582831    -9.632388    -9.834165    0.000000    0.000000    0.000000    
